<?xml version="1.0" encoding="UTF-8" standalone="no"?>
<svg
   xmlns:dc="http://purl.org/dc/elements/1.1/"
   xmlns:cc="http://creativecommons.org/ns#"
   xmlns:rdf="http://www.w3.org/1999/02/22-rdf-syntax-ns#"
   xmlns:svg="http://www.w3.org/2000/svg"
   xmlns="http://www.w3.org/2000/svg"
   xmlns:sodipodi="http://sodipodi.sourceforge.net/DTD/sodipodi-0.dtd"
   xmlns:inkscape="http://www.inkscape.org/namespaces/inkscape"
   aria-hidden="true"
   focusable="false"
   data-prefix="fas"
   data-icon="campground"
   class="svg-inline--fa fa-campground fa-w-20"
   role="img"
   viewBox="0 0 640 512"
   version="1.1"
   id="svg4"
   sodipodi:docname="marker.svg"
   inkscape:version="0.92.3 (2405546, 2018-03-11)">
  <metadata
     id="metadata10">
    <rdf:RDF>
      <cc:Work
         rdf:about="">
        <dc:format>image/svg+xml</dc:format>
        <dc:type
           rdf:resource="http://purl.org/dc/dcmitype/StillImage" />
      </cc:Work>
    </rdf:RDF>
  </metadata>
  <defs
     id="defs8" />
  <sodipodi:namedview
     pagecolor="#ffffff"
     bordercolor="#666666"
     borderopacity="1"
     objecttolerance="10"
     gridtolerance="10"
     guidetolerance="10"
     inkscape:pageopacity="0"
     inkscape:pageshadow="2"
     inkscape:window-width="1920"
     inkscape:window-height="1005"
     id="namedview6"
     showgrid="false"
     inkscape:zoom="0.74737763"
     inkscape:cx="299.65296"
     inkscape:cy="256"
     inkscape:window-x="-9"
     inkscape:window-y="-9"
     inkscape:window-maximized="1"
     inkscape:current-layer="svg4" />
  <path
     d="m 441.27844,332.59635 h -9.84589 l -95.65837,-131.75068 21.3075,-29.3422 c 2.07051,-2.85243 1.44018,-6.84585 -1.41225,-8.91636 l -10.33261,-7.49612 c -2.85243,-2.07051 -6.84186,-1.44018 -8.91636,1.41624 L 320,179.12327 303.57555,156.50324 c -2.07051,-2.85243 -6.06392,-3.48675 -8.91636,-1.41624 l -10.32463,7.50011 c -2.85243,2.07051 -3.48675,6.06393 -1.41225,8.91636 l 21.3075,29.3422 -95.66236,131.75068 h -9.84589 c -3.52665,0 -6.38308,2.85643 -6.38308,6.38308 v 12.76615 c 0,3.52665 2.85643,6.38308 6.38308,6.38308 h 242.55688 c 3.52665,0 6.38308,-2.85643 6.38308,-6.38308 v -12.76615 c 0,-3.52665 -2.85643,-6.38308 -6.38308,-6.38308 z M 320,268.76559 l 46.42092,63.83076 h -92.84184 z"
     id="path2"
     inkscape:connector-curvature="0"
     style="fill:#793e14;stroke-width:0.39894226;fill-opacity:1" />
</svg>
